<!--?xml version="1.0" standalone="no"?-->
              <svg id="sw-js-blob-svg" viewBox="0 0 100 100" xmlns="http://www.w3.org/2000/svg" version="1.1">
                    <defs> 
                        <linearGradient id="sw-gradient" x1="0" x2="1" y1="1" y2="0">
                            <stop id="stop1" stop-color="rgba(255, 255, 255, 0.7)" offset="0%"></stop>
                            <stop id="stop2" stop-color="rgba(0, 177.251, 255, 1)" offset="100%"></stop>
                        </linearGradient>
                    </defs>
                <path fill="url(#sw-gradient)" d="M18.4,-21.1C23.4,-17.7,26.8,-11.5,27.8,-5C28.8,1.4,27.4,8.2,25,16.5C22.7,24.8,19.4,34.5,13.4,36.6C7.4,38.7,-1.3,33.1,-10.4,29.5C-19.6,25.8,-29.1,24.1,-34.5,18.2C-39.8,12.4,-40.9,2.5,-39.7,-7.4C-38.5,-17.4,-34.9,-27.3,-27.8,-30.3C-20.8,-33.4,-10.4,-29.5,-1.9,-27.3C6.7,-25.1,13.3,-24.5,18.4,-21.1Z" width="100%" height="100%" transform="translate(50 50)" stroke-width="0" style="transition: all 0.3s ease 0s;" stroke="url(#sw-gradient)"></path>
              </svg>