<svg width="1920" height="1080" viewBox="0 0 1920 1080" xmlns="http://www.w3.org/2000/svg"><rect width="1920" height="1080" fill="#977f63"/><path d="M 0,1080 C 0,1080 0,154 0,154 C 193.71053953316238,131.23981601416904 387.42107906632475,108.47963202833805 424,109 C 460.57892093367525,109.52036797166195 340.0262232678633,133.32128790081683 414,142 C 487.9737767321367,150.67871209918317 756.4740278622221,144.23521636839462 767,156 C 777.5259721377779,167.76478363160538 530.0776652832483,197.7378466256047 522,199 C 513.9223347167517,200.2621533743953 745.2153110047848,172.8133971291866 950,154 C 1154.7846889952152,135.1866028708134 1333.0610906976128,125.0085648576489 1380,127 C 1426.9389093023872,128.9914351423511 1342.5403262047637,143.1523434402178 1396,140 C 1449.4596737952363,136.8476565597822 1640.7776044833329,116.38206138147982 1702,104 C 1763.2223955166671,91.61793861852018 1694.3492558619048,87.3194110338629 1709,97 C 1723.6507441380952,106.6805889661371 1821.8253720690477,130.34029448306853 1920,154 C 1920,154 1920,1080 1920,1080 Z" fill="#ff7b00" opacity="0.08571428571428572"/><path d="M 0,1080 C 0,1080 0,308 0,308 C 108.41839593962304,283.8201512067462 216.83679187924608,259.64030241349235 234,254 C 251.16320812075392,248.35969758650768 177.0712284226387,261.2589415527769 185,276 C 192.9287715773613,290.7410584472231 282.87829443019905,307.32393137539987 406,305 C 529.121705569801,302.67606862460013 685.4155938565651,281.4453329456237 751,272 C 816.5844061434349,262.5546670543763 791.4593301435406,264.8947368421053 837,264 C 882.5406698564594,263.1052631578947 998.7470855692723,258.97571968595514 1052,268 C 1105.2529144307277,277.02428031404486 1095.5523275793705,299.2023844140739 1176,301 C 1256.4476724206295,302.7976155859261 1427.0436041132464,284.21474265774935 1513,297 C 1598.9563958867536,309.78525734225065 1600.2732559676438,353.93864495492875 1654,361 C 1707.7267440323562,368.06135504507125 1813.8633720161781,338.0306775225356 1920,308 C 1920,308 1920,1080 1920,1080 Z" fill="#ff7b00" opacity="0.17142857142857143"/><path d="M 0,1080 C 0,1080 0,462 0,462 C 45.36739009754422,462.1829284411431 90.73478019508843,462.3658568822861 165,471 C 239.26521980491157,479.6341431177139 342.4282693171905,496.7195009119987 370,488 C 397.5717306828095,479.2804990880013 349.5521425361495,444.75613946971896 374,451 C 398.4478574638505,457.24386053028104 495.36316053821133,504.25594120912524 619,510 C 742.6368394617887,515.7440587908748 892.9952153110048,480.2200956937799 1039,478 C 1185.0047846889952,475.7799043062201 1326.6559782177694,506.8636760157551 1356,488 C 1385.3440217822306,469.1363239842449 1302.3808718179175,400.3252002431996 1344,412 C 1385.6191281820825,423.6747997568004 1551.8205345105605,515.8355230114463 1618,519 C 1684.1794654894395,522.1644769885537 1650.3369901398398,436.3327077110153 1684,412 C 1717.6630098601602,387.6672922889847 1818.83150493008,424.8336461444924 1920,462 C 1920,462 1920,1080 1920,1080 Z" fill="#ff7b00" opacity="0.2571428571428571"/><path d="M 0,1080 C 0,1080 0,617 0,617 C -42.01085146316318,602.9330011366941 -84.02170292632636,588.8660022733882 29,593 C 142.02170292632636,597.1339977266118 410.0759602421423,619.4689920431416 442,635 C 473.9240397578577,650.5310079568584 269.7178619577574,659.2580295540458 367,640 C 464.2821380422426,620.7419704459542 863.0525919268284,573.498889740675 951,573 C 1038.9474080731716,572.501110259325 816.0717703349283,618.7464114832536 795,624 C 773.9282296650717,629.2535885167464 954.6603267334585,593.5154643263105 1014,588 C 1073.3396732665415,582.4845356736895 1011.2869227312378,607.1917312115044 1147,600 C 1282.7130772687622,592.8082687884956 1616.19198234159,553.7176108276719 1776,569 C 1935.80801765841,584.2823891723281 1921.9451479024028,653.9378254778079 1917,671 C 1912.0548520975972,688.0621745221921 1916.0274260487986,652.531087261096 1920,617 C 1920,617 1920,1080 1920,1080 Z" fill="#ff7b00" opacity="0.34285714285714286"/><path d="M 0,1080 C 0,1080 0,771 0,771 C 62.964643527452466,744.8533400301357 125.92928705490493,718.7066800602713 222,733 C 318.07071294509507,747.2933199397287 447.24749530783254,802.0266197890508 554,807 C 660.7525046921675,811.9733802109492 745.0807317137645,767.1868407835258 727,758 C 708.9192682862355,748.8131592164742 588.4295778371092,775.2260170768458 627,789 C 665.5704221628908,802.7739829231542 863.2009569377988,803.9090909090909 988,785 C 1112.7990430622012,766.0909090909091 1164.7665944116948,727.1376192867907 1197,726 C 1229.2334055883052,724.8623807132093 1241.7326654154222,761.5404319437469 1261,779 C 1280.2673345845778,796.4595680562531 1306.302743926617,794.7006529382219 1453,790 C 1599.697256073383,785.2993470617781 1867.0563588781097,777.6569563033652 1965,774 C 2062.9436411218903,770.3430436966348 1991.4718205609452,770.6715218483174 1920,771 C 1920,771 1920,1080 1920,1080 Z" fill="#ff7b00" opacity="0.4285714285714286"/><path d="M 0,1080 C 0,1080 0,925 0,925 C 143.1531232652198,936.9825662851251 286.3062465304396,948.9651325702504 405,961 C 523.6937534695604,973.0348674297496 617.9281371434615,985.1220360041237 585,982 C 552.0718628565385,978.8779639958763 391.9812048957149,960.5467234132544 353,931 C 314.0187951042851,901.4532765867456 396.14704327367883,860.6910703428586 522,874 C 647.8529567263212,887.3089296571414 817.4306220095693,954.688995215311 935,954 C 1052.5693779904307,953.311004784689 1118.1304686880435,884.5529487958972 1192,873 C 1265.8695313119565,861.4470512041028 1348.0475032382562,907.0992096010997 1400,919 C 1451.9524967617438,930.9007903989003 1473.6795183589309,909.050212799704 1562,916 C 1650.3204816410691,922.949787200296 1805.2344233260196,958.6999392000845 1876,965 C 1946.7655766739804,971.3000607999155 1933.3827883369902,948.1500303999578 1920,925 C 1920,925 1920,1080 1920,1080 Z" fill="#ff7b00" opacity="0.5142857142857142"/><path d="M 0,1080 C 0,1080 0,1079 0,1079 C 213.74339792222898,1064.612400539269 427.48679584445796,1050.2248010785377 438,1037 C 448.51320415554204,1023.7751989214623 255.79621454439712,1011.7131962251183 267,1023 C 278.2037854556029,1034.2868037748817 493.32834597795363,1068.9224140209892 675,1071 C 856.6716540220464,1073.0775859790108 1004.8904015437889,1042.5971476909249 957,1050 C 909.1095984562111,1057.4028523090751 665.1100478468901,1102.688995215311 755,1113 C 844.8899521531099,1123.311004784689 1268.6694070686508,1098.6468714478308 1358,1100 C 1447.3305929313492,1101.3531285521692 1202.212323878506,1128.723518993365 1197,1130 C 1191.787676121494,1131.276481006635 1426.4812974173253,1106.4590525787094 1492,1099 C 1557.5187025826747,1091.5409474212906 1453.8624864521928,1101.4402706917974 1497,1101 C 1540.1375135478072,1100.5597293082026 1730.0687567739037,1089.7798646541014 1920,1079 C 1920,1079 1920,1080 1920,1080 Z" fill="#ff7b00" opacity="0.6"/></svg>