<svg width="1920" height="1080" viewBox="0 0 1920 1080" xmlns="http://www.w3.org/2000/svg"><path d="M 0,1080 C 0,1080 0,135 0,135 C 165.47293814432987,153.9318851251841 330.94587628865975,172.8637702503682 458,175 C 585.0541237113403,177.1362297496318 673.6894329896908,162.47680412371133 737,162 C 800.3105670103092,161.52319587628867 838.2963917525774,175.22901325478645 905,161 C 971.7036082474226,146.77098674521355 1067.125,104.60714285714285 1036,98 C 1004.8750000000001,91.39285714285715 847.2036082474231,120.3424153166421 1005,134 C 1162.796391752577,147.6575846833579 1636.0605670103091,146.02319587628867 1702,148 C 1767.9394329896909,149.97680412371133 1426.55412371134,155.56480117820325 1395,154 C 1363.44587628866,152.43519882179675 1641.7229381443299,143.71759941089837 1920,135 C 1920,135 1920,1080 1920,1080 Z" fill="#ff7b00" opacity="0.075"/><path d="M 0,1080 C 0,1080 0,270 0,270 C 18.54270986745209,277.88696612665683 37.08541973490418,285.7739322533137 199,280 C 360.9145802650958,274.2260677466863 666.2010309278352,254.79123711340205 733,250 C 799.7989690721648,245.20876288659795 628.1104565537555,255.06111929307806 736,252 C 843.8895434462445,248.93888070692194 1231.357142857143,232.96428571428572 1256,228 C 1280.642857142857,223.03571428571428 942.460972017673,229.0817378497791 976,228 C 1009.539027982327,226.9182621502209 1414.798969072165,218.70876288659792 1574,221 C 1733.201030927835,223.29123711340208 1646.343151693667,236.0832106038292 1663,246 C 1679.656848306333,255.9167893961708 1799.8284241531665,262.9583946980854 1920,270 C 1920,270 1920,1080 1920,1080 Z" fill="#ff7b00" opacity="0.15"/><path d="M 0,1080 C 0,1080 0,405 0,405 C -59.44385125184096,433.3315537555228 -118.88770250368192,461.66310751104567 -49,455 C 20.887702503681925,448.33689248895433 220.10695876288673,406.6791237113402 471,400 C 721.8930412371133,393.3208762886598 1024.4598674521355,421.6203976435935 1028,435 C 1031.5401325478645,448.3796023564065 736.0535714285712,446.8392857142858 765,441 C 793.9464285714288,435.1607142857142 1147.325846833579,425.0224594992636 1280,402 C 1412.674153166421,378.9775405007364 1324.6430412371133,343.0708762886598 1327,355 C 1329.3569587628867,366.9291237113402 1422.1019882179678,426.6940353460972 1536,443 C 1649.8980117820322,459.3059646539028 1784.949005891016,432.15298232695136 1920,405 C 1920,405 1920,1080 1920,1080 Z" fill="#ff7b00" opacity="0.22499999999999998"/><path d="M 0,1080 C 0,1080 0,540 0,540 C 178.90832106038292,542.0071796759942 357.81664212076583,544.0143593519882 363,539 C 368.18335787923417,533.9856406480118 199.6417525773195,521.9497422680412 167,527 C 134.3582474226805,532.0502577319588 237.61634756995602,554.1866715758468 516,571 C 794.383652430044,587.8133284241532 1247.8928571428569,599.3035714285714 1269,580 C 1290.1071428571431,560.6964285714286 878.8122238586158,510.59904270986743 908,497 C 937.1877761413842,483.40095729013257 1406.85824742268,506.3002577319588 1669,528 C 1931.14175257732,549.6997422680412 1985.754786450663,570.1999263622974 1993,572 C 2000.245213549337,573.8000736377026 1960.1226067746684,556.9000368188513 1920,540 C 1920,540 1920,1080 1920,1080 Z" fill="#ff7b00" opacity="0.3"/><path d="M 0,1080 C 0,1080 0,675 0,675 C -55.43022827687777,697.1358615611193 -110.86045655375554,719.2717231222385 -36,701 C 38.86045655375555,682.7282768777615 244.0115979381444,624.0489690721649 390,627 C 535.9884020618556,629.9510309278351 622.8140648011782,694.5324005891017 734,719 C 845.1859351988218,743.4675994108983 980.7321428571429,727.8214285714286 970,712 C 959.2678571428571,696.1785714285714 802.2573637702503,680.1818851251842 939,679 C 1075.7426362297497,677.8181148748158 1506.2384020618556,691.451030927835 1648,699 C 1789.7615979381444,706.548969072165 1642.789027982327,708.0139911634758 1640,703 C 1637.210972017673,697.9860088365242 1778.6054860088366,686.4930044182621 1920,675 C 1920,675 1920,1080 1920,1080 Z" fill="#ff7b00" opacity="0.375"/><path d="M 0,1080 C 0,1080 0,810 0,810 C -51.12426362297495,797.863586156112 -102.2485272459499,785.7271723122238 -20,788 C 62.24852724594991,790.2728276877762 277.8698453608247,806.9548969072165 425,825 C 572.1301546391753,843.0451030927835 650.769145802651,862.4532400589102 814,858 C 977.230854197349,853.5467599410898 1225.0535714285713,825.2321428571429 1257,809 C 1288.9464285714287,792.7678571428571 1105.0165684830633,788.6181885125185 1110,781 C 1114.9834315169367,773.3818114874815 1308.880154639175,762.2951030927835 1363,777 C 1417.119845360825,791.7048969072165 1331.4628129602356,832.2013991163476 1401,842 C 1470.5371870397644,851.7986008836524 1695.2685935198822,830.8993004418262 1920,810 C 1920,810 1920,1080 1920,1080 Z" fill="#ff7b00" opacity="0.44999999999999996"/><path d="M 0,1080 C 0,1080 0,945 0,945 C 98.95287187039762,961.2951030927835 197.90574374079523,977.590206185567 237,969 C 276.09425625920477,960.409793814433 255.32989690721655,926.9342783505155 341,918 C 426.67010309278345,909.0657216494845 618.7746686303386,924.6726804123712 769,936 C 919.2253313696614,947.3273195876288 1027.5714285714287,954.375 1023,961 C 1018.4285714285713,967.625 900.939617083947,973.8273195876288 1040,964 C 1179.060382916053,954.1726804123712 1574.6701030927836,928.3157216494845 1751,934 C 1927.3298969072164,939.6842783505155 1884.379970544919,976.9097938144331 1876,984 C 1867.620029455081,991.0902061855669 1893.8100147275404,968.0451030927834 1920,945 C 1920,945 1920,1080 1920,1080 Z" fill="#ff7b00" opacity="0.525"/></svg>