<svg width="1920" height="1080" viewBox="0 0 1920 1080" xmlns="http://www.w3.org/2000/svg"><rect width="1920" height="1080" fill="#ffffff"/><path d="M1733,540.9999999999999C1731.5,650.9709347793895,1719.0099990027613,797.6838690296648,1661.7266509268143,904.4128043381686C1604.4433028508672,1011.1417396466724,1474.6059032875805,1117.0764235513225,1389.2999115443174,1181.3736118510224C1303.9939198010543,1245.6708001507222,1239.5891358024946,1266.8922137554769,1149.8907004672358,1290.1959341363677C1060.192265131977,1313.4996545172585,956.1939748429785,1341.9996545172585,851.1092995327642,1321.1959341363677C746.02462422255,1300.3922137554769,563.9724431394832,1254.7395772744162,519.38264860595,1165.3736118510224C474.7928540724167,1076.0076464276285,634.4676404325563,881.0624102378421,583.5705323315647,785.000141596005C532.673424230573,688.937872954168,251.49533205435284,682.5688243223624,214,589.0000000000001C176.50466794564716,495.43117567763784,303.701431904456,325.4827976370019,358.5985400054476,223.58719566183152C413.4956481064392,121.69159368666112,462.38784016537903,44.75690978201095,543.3826486059497,-22.373611851022247C624.3774570465205,-89.50413348405544,741.6493820053242,-193.5517736605297,844.5673906488719,-179.19593413636767C947.4853992924195,-164.84009461220563,1063.5490403430392,32.9577049130591,1160.8907004672355,63.76142529394997C1258.2323605914319,94.56514567484083,1343.6446929841202,-24.511240245669352,1428.61735139405,5.626388148977526C1513.59000980398,35.76401654362441,1619.9962094924892,155.35826035332752,1670.7266509268143,244.58719566183123C1721.4570923611393,333.81613097033494,1734.5,431.02906522061033,1733,540.9999999999999C1731.5,650.9709347793895,1719.0099990027613,797.6838690296648,1661.7266509268143,904.4128043381686" fill="#2f5bc1"/></svg>