<svg viewBox="0 0 100 100" xmlns="http://www.w3.org/2000/svg"><path d="M79.5,65Q67,80,50.5,78.5Q34,77,22.5,63.5Q11,50,18.5,29.5Q26,9,49.5,10Q73,11,82.5,30.5Q92,50,79.5,65Z" stroke="none" stroke-width="0" fill="#e7e6f5"/><path d="M82.5,67Q70,84,49.5,85Q29,86,23.5,68Q18,50,23.5,31.5Q29,13,52,10Q75,7,85,28.5Q95,50,82.5,67Z" stroke="none" stroke-width="0" fill="#d4d2f3"/><path d="M78,66.5Q69,83,49,84.5Q29,86,24,68Q19,50,26.5,36.5Q34,23,54.5,15Q75,7,81,28.5Q87,50,78,66.5Z" stroke="none" stroke-width="0" fill="#c1bef1"/><path d="M78.5,69.5Q72,89,52.5,84Q33,79,17,64.5Q1,50,18,37Q35,24,54,17Q73,10,79,30Q85,50,78.5,69.5Z" stroke="none" stroke-width="0" fill="#aeaaef"/><path d="M76,67Q70,84,49.5,85Q29,86,22,68Q15,50,23.5,34.5Q32,19,52.5,14.5Q73,10,77.5,30Q82,50,76,67Z" stroke="none" stroke-width="0" fill="#9b96ed"/><path d="M75,67Q70,84,52,81Q34,78,20,64Q6,50,16.5,30.5Q27,11,48,14Q69,17,74.5,33.5Q80,50,75,67Z" stroke="none" stroke-width="0" fill="#8882eb"/><path d="M82.5,66Q68,82,48,85.5Q28,89,18,69.5Q8,50,18.5,31.5Q29,13,52,10Q75,7,86,28.5Q97,50,82.5,66Z" stroke="none" stroke-width="0" fill="#756ee9"/><path d="M74.5,65.5Q68,81,48.5,83.5Q29,86,16.5,68Q4,50,17,32.5Q30,15,48,19Q66,23,73.5,36.5Q81,50,74.5,65.5Z" stroke="none" stroke-width="0" fill="#625ae7"/></svg>